<mxfile host="app.diagrams.net" modified="2023-05-26T21:26:18.971Z" agent="Mozilla/5.0 (Windows NT 10.0; Win64; x64) AppleWebKit/537.36 (KHTML, like Gecko) Chrome/113.0.0.0 Safari/537.36" etag="NbSok9Ubqk2U29wQs1fV" version="21.3.4" type="github">
  <diagram id="C5RBs43oDa-KdzZeNtuy" name="Page-1">
    <mxGraphModel dx="2261" dy="1961" grid="1" gridSize="10" guides="1" tooltips="1" connect="1" arrows="1" fold="1" page="1" pageScale="1" pageWidth="827" pageHeight="1169" math="0" shadow="0">
      <root>
        <mxCell id="WIyWlLk6GJQsqaUBKTNV-0" />
        <mxCell id="WIyWlLk6GJQsqaUBKTNV-1" parent="WIyWlLk6GJQsqaUBKTNV-0" />
        <mxCell id="e-XUk_DkocaL8AsC0olE-0" value="TrackNode" style="swimlane;fontStyle=1;align=center;verticalAlign=top;childLayout=stackLayout;horizontal=1;startSize=26;horizontalStack=0;resizeParent=1;resizeParentMax=0;resizeLast=0;collapsible=1;marginBottom=0;whiteSpace=wrap;html=1;" parent="WIyWlLk6GJQsqaUBKTNV-1" vertex="1">
          <mxGeometry x="20" y="-310" width="450" height="290" as="geometry" />
        </mxCell>
        <mxCell id="e-XUk_DkocaL8AsC0olE-1" value="+ Node: GameObject&lt;br&gt;+ trackMap&amp;lt;String, TrackPathGroup&amp;gt;: Dict&lt;br&gt;+ trackManager: TrackManager&lt;br&gt;- currentDirection: Vector3" style="text;strokeColor=none;fillColor=none;align=left;verticalAlign=top;spacingLeft=4;spacingRight=4;overflow=hidden;rotatable=0;points=[[0,0.5],[1,0.5]];portConstraint=eastwest;whiteSpace=wrap;html=1;" parent="e-XUk_DkocaL8AsC0olE-0" vertex="1">
          <mxGeometry y="26" width="450" height="84" as="geometry" />
        </mxCell>
        <mxCell id="e-XUk_DkocaL8AsC0olE-2" value="" style="line;strokeWidth=1;fillColor=none;align=left;verticalAlign=middle;spacingTop=-1;spacingLeft=3;spacingRight=3;rotatable=0;labelPosition=right;points=[];portConstraint=eastwest;strokeColor=inherit;" parent="e-XUk_DkocaL8AsC0olE-0" vertex="1">
          <mxGeometry y="110" width="450" height="8" as="geometry" />
        </mxCell>
        <mxCell id="e-XUk_DkocaL8AsC0olE-3" value="+ Start(): void&lt;br&gt;+ Update(): void&lt;br&gt;# addTrackPathToTrackPathGroupInverse(Vector3 direction, GameObject trackPath): void&lt;br&gt;#&amp;nbsp;addAndGetTrackPathGroup&lt;span style=&quot;background-color: initial;&quot;&gt;(Vector3 direction): TrackPathGroup&lt;/span&gt;&lt;br&gt;- getTrackManager(): TrackManager&lt;br&gt;# exitPreview(): void&lt;br&gt;# rotateNode(): void&lt;br&gt;# enterPreview(): void&lt;br&gt;# enterPreview(Vector3 direction): void&lt;br&gt;- getTrackPathGroup(Vector direction): TrackPathGroup" style="text;strokeColor=none;fillColor=none;align=left;verticalAlign=top;spacingLeft=4;spacingRight=4;overflow=hidden;rotatable=0;points=[[0,0.5],[1,0.5]];portConstraint=eastwest;whiteSpace=wrap;html=1;" parent="e-XUk_DkocaL8AsC0olE-0" vertex="1">
          <mxGeometry y="118" width="450" height="172" as="geometry" />
        </mxCell>
        <mxCell id="e-XUk_DkocaL8AsC0olE-5" value="TrackPathGroup" style="swimlane;fontStyle=1;align=center;verticalAlign=top;childLayout=stackLayout;horizontal=1;startSize=26;horizontalStack=0;resizeParent=1;resizeParentMax=0;resizeLast=0;collapsible=1;marginBottom=0;whiteSpace=wrap;html=1;" parent="WIyWlLk6GJQsqaUBKTNV-1" vertex="1">
          <mxGeometry x="-640" y="40" width="480" height="220" as="geometry" />
        </mxCell>
        <mxCell id="e-XUk_DkocaL8AsC0olE-6" value="-&amp;nbsp; type: TrackPathGroupType&lt;br&gt;# parentNode: GameObject&lt;br&gt;# static trackManager: TrackManager&lt;br&gt;# rotation: Vector3&lt;br&gt;&amp;nbsp;" style="text;strokeColor=none;fillColor=none;align=left;verticalAlign=top;spacingLeft=4;spacingRight=4;overflow=hidden;rotatable=0;points=[[0,0.5],[1,0.5]];portConstraint=eastwest;whiteSpace=wrap;html=1;" parent="e-XUk_DkocaL8AsC0olE-5" vertex="1">
          <mxGeometry y="26" width="480" height="74" as="geometry" />
        </mxCell>
        <mxCell id="e-XUk_DkocaL8AsC0olE-7" value="" style="line;strokeWidth=1;fillColor=none;align=left;verticalAlign=middle;spacingTop=-1;spacingLeft=3;spacingRight=3;rotatable=0;labelPosition=right;points=[];portConstraint=eastwest;strokeColor=inherit;" parent="e-XUk_DkocaL8AsC0olE-5" vertex="1">
          <mxGeometry y="100" width="480" height="8" as="geometry" />
        </mxCell>
        <mxCell id="e-XUk_DkocaL8AsC0olE-8" value="+ setInfo(GameObject parentNode, Vector3 rotation, TrackPathGroupType type): void&lt;br&gt;+ getTrackPathGroupType(): TrackPathGroupType&lt;br&gt;+ getRandomTrackPath(): TrackPath&lt;br&gt;+&amp;nbsp;convertPreviewPathToPath(GameObject trackPath): void&lt;br&gt;#&amp;nbsp;addTrackPathInverse(GamePath trackPath): void&lt;br&gt;# exitPreview(): void&lt;br&gt;# enterPreview(): void&lt;br&gt;" style="text;strokeColor=none;fillColor=none;align=left;verticalAlign=top;spacingLeft=4;spacingRight=4;overflow=hidden;rotatable=0;points=[[0,0.5],[1,0.5]];portConstraint=eastwest;whiteSpace=wrap;html=1;" parent="e-XUk_DkocaL8AsC0olE-5" vertex="1">
          <mxGeometry y="108" width="480" height="112" as="geometry" />
        </mxCell>
        <mxCell id="e-XUk_DkocaL8AsC0olE-9" value="&amp;lt;enum&amp;gt; TrackPathGroupType" style="swimlane;fontStyle=0;childLayout=stackLayout;horizontal=1;startSize=26;fillColor=none;horizontalStack=0;resizeParent=1;resizeParentMax=0;resizeLast=0;collapsible=1;marginBottom=0;whiteSpace=wrap;html=1;" parent="WIyWlLk6GJQsqaUBKTNV-1" vertex="1">
          <mxGeometry x="320" y="150" width="200" height="110" as="geometry" />
        </mxCell>
        <mxCell id="e-XUk_DkocaL8AsC0olE-10" value="STRAIGHT&lt;br&gt;BRIDGE&lt;span style=&quot;white-space: pre;&quot;&gt; &lt;/span&gt;" style="text;strokeColor=none;fillColor=none;align=left;verticalAlign=top;spacingLeft=4;spacingRight=4;overflow=hidden;rotatable=0;points=[[0,0.5],[1,0.5]];portConstraint=eastwest;whiteSpace=wrap;html=1;" parent="e-XUk_DkocaL8AsC0olE-9" vertex="1">
          <mxGeometry y="26" width="200" height="84" as="geometry" />
        </mxCell>
        <mxCell id="9OUOYf-8_BokV1W52oxd-0" value="TrackPath" style="swimlane;fontStyle=1;align=center;verticalAlign=top;childLayout=stackLayout;horizontal=1;startSize=26;horizontalStack=0;resizeParent=1;resizeParentMax=0;resizeLast=0;collapsible=1;marginBottom=0;whiteSpace=wrap;html=1;" vertex="1" parent="WIyWlLk6GJQsqaUBKTNV-1">
          <mxGeometry x="-570" y="610" width="410" height="220" as="geometry" />
        </mxCell>
        <mxCell id="9OUOYf-8_BokV1W52oxd-1" value="# ToNode1: GameObject&lt;br&gt;# ToNode2: GameObject&lt;br&gt;# trackLength: int" style="text;strokeColor=none;fillColor=none;align=left;verticalAlign=top;spacingLeft=4;spacingRight=4;overflow=hidden;rotatable=0;points=[[0,0.5],[1,0.5]];portConstraint=eastwest;whiteSpace=wrap;html=1;" vertex="1" parent="9OUOYf-8_BokV1W52oxd-0">
          <mxGeometry y="26" width="410" height="64" as="geometry" />
        </mxCell>
        <mxCell id="9OUOYf-8_BokV1W52oxd-2" value="" style="line;strokeWidth=1;fillColor=none;align=left;verticalAlign=middle;spacingTop=-1;spacingLeft=3;spacingRight=3;rotatable=0;labelPosition=right;points=[];portConstraint=eastwest;strokeColor=inherit;" vertex="1" parent="9OUOYf-8_BokV1W52oxd-0">
          <mxGeometry y="90" width="410" height="8" as="geometry" />
        </mxCell>
        <mxCell id="9OUOYf-8_BokV1W52oxd-3" value="+ Start(): void&lt;br&gt;# addNode(GameObject node1, GameObject node2)&lt;br&gt;# getNodes(): GameObject[]&lt;br&gt;# Update(): void&lt;br&gt;# getTrackLength(): int&lt;br&gt;# getNextPosition(TrackNavigationInfo trackNavigateInfo): Vector3&lt;br&gt;# getRotationAtPosition(Vector3 position): Vector3&lt;br&gt;" style="text;strokeColor=none;fillColor=none;align=left;verticalAlign=top;spacingLeft=4;spacingRight=4;overflow=hidden;rotatable=0;points=[[0,0.5],[1,0.5]];portConstraint=eastwest;whiteSpace=wrap;html=1;" vertex="1" parent="9OUOYf-8_BokV1W52oxd-0">
          <mxGeometry y="98" width="410" height="122" as="geometry" />
        </mxCell>
        <mxCell id="9OUOYf-8_BokV1W52oxd-4" value="NormalTrackPathGroup" style="swimlane;fontStyle=1;align=center;verticalAlign=top;childLayout=stackLayout;horizontal=1;startSize=26;horizontalStack=0;resizeParent=1;resizeParentMax=0;resizeLast=0;collapsible=1;marginBottom=0;whiteSpace=wrap;html=1;" vertex="1" parent="WIyWlLk6GJQsqaUBKTNV-1">
          <mxGeometry x="20" y="300" width="550" height="420" as="geometry" />
        </mxCell>
        <mxCell id="9OUOYf-8_BokV1W52oxd-5" value="- left: GameObject&lt;br&gt;- right: GameObject&lt;br&gt;- straight: GameObject&lt;br&gt;- previewLeft: GameObject&lt;br&gt;- previewRight: GameObject&lt;br&gt;- previewStraight: GameObject&lt;br&gt;#&amp;nbsp;previewTracks: List&amp;lt;GameObject&amp;gt;" style="text;strokeColor=none;fillColor=none;align=left;verticalAlign=top;spacingLeft=4;spacingRight=4;overflow=hidden;rotatable=0;points=[[0,0.5],[1,0.5]];portConstraint=eastwest;whiteSpace=wrap;html=1;" vertex="1" parent="9OUOYf-8_BokV1W52oxd-4">
          <mxGeometry y="26" width="550" height="134" as="geometry" />
        </mxCell>
        <mxCell id="9OUOYf-8_BokV1W52oxd-6" value="" style="line;strokeWidth=1;fillColor=none;align=left;verticalAlign=middle;spacingTop=-1;spacingLeft=3;spacingRight=3;rotatable=0;labelPosition=right;points=[];portConstraint=eastwest;strokeColor=inherit;" vertex="1" parent="9OUOYf-8_BokV1W52oxd-4">
          <mxGeometry y="160" width="550" height="8" as="geometry" />
        </mxCell>
        <mxCell id="9OUOYf-8_BokV1W52oxd-7" value="# showNextTrack(bool showLeft, bool showRight, bool showStraight): void&lt;br&gt;-&amp;nbsp;addComponentsToChild(List&amp;lt;GameObject&amp;gt; gameObjectList): void&lt;br&gt;- removePreview(): void&lt;br&gt;- getNextNodeRotation(GameObject trackPath, Vector3 rotation): Vector3&lt;br&gt;- getNextNodePosition(GameObject trackPath): Vector3&lt;br&gt;- getNextNode(GameObject trackPath): GameObject&lt;br&gt;- createNextNode(GameObject trackPath): GameObject" style="text;strokeColor=none;fillColor=none;align=left;verticalAlign=top;spacingLeft=4;spacingRight=4;overflow=hidden;rotatable=0;points=[[0,0.5],[1,0.5]];portConstraint=eastwest;whiteSpace=wrap;html=1;" vertex="1" parent="9OUOYf-8_BokV1W52oxd-4">
          <mxGeometry y="168" width="550" height="252" as="geometry" />
        </mxCell>
      </root>
    </mxGraphModel>
  </diagram>
</mxfile>
